<?xml version="1.0" standalone="no"?>
<!DOCTYPE svg PUBLIC "-//W3C//DTD SVG 20010904//EN"
 "http://www.w3.org/TR/2001/REC-SVG-20010904/DTD/svg10.dtd">
<svg version="1.0" xmlns="http://www.w3.org/2000/svg"
 width="512.000000pt" height="512.000000pt" viewBox="0 0 512.000000 512.000000"
 preserveAspectRatio="xMidYMid meet">
<metadata>
Created by potrace 1.11, written by Peter Selinger 2001-2013
</metadata>
<g transform="translate(0.000000,512.000000) scale(0.100000,-0.100000)"
fill="#000000" stroke="none">
<path d="M2938 4723 c4 -30 2 -34 -14 -30 -11 3 -44 8 -74 12 -30 3 -68 9 -83
12 -26 4 -28 3 -18 -15 9 -17 0 -30 -67 -97 -107 -107 -178 -141 -338 -160
-174 -21 -180 -23 -351 -136 -58 -38 -111 -69 -119 -69 -21 0 -17 33 17 138
35 110 35 141 -1 159 -33 17 -119 16 -205 -2 -68 -14 -223 -84 -245 -109 -17
-22 0 -46 57 -78 l53 -30 -45 -29 c-91 -58 -104 -120 -55 -259 37 -106 38
-132 4 -159 -35 -28 -52 -26 -94 9 -76 66 -147 26 -165 -92 -8 -54 -16 -63
-66 -72 -47 -8 -134 -65 -232 -150 -70 -61 -82 -78 -123 -164 -24 -53 -52
-105 -62 -115 -9 -11 -64 -52 -122 -92 -58 -40 -113 -82 -123 -92 -19 -22 -47
-136 -47 -199 0 -85 70 -251 137 -322 32 -34 34 -34 95 -28 35 3 80 8 100 12
50 8 112 -27 216 -121 78 -71 107 -87 183 -99 48 -8 72 -37 99 -119 37 -114
47 -121 332 -237 70 -28 138 -62 152 -75 39 -36 34 -78 -20 -187 l-46 -93 6
-98 c8 -132 5 -142 -58 -172 -111 -53 -166 -127 -166 -222 0 -60 -8 -69 -79
-84 -71 -15 -91 -36 -91 -97 0 -37 10 -67 43 -132 49 -96 52 -98 261 -204 100
-51 125 -68 151 -106 37 -53 84 -75 257 -119 226 -58 291 -65 568 -65 276 0
343 7 567 65 819 210 1456 885 1622 1719 26 132 41 262 41 363 0 71 -3 82 -34
130 -30 46 -35 62 -40 142 -3 50 -10 115 -16 147 -6 31 -10 60 -9 65 4 23 -3
33 -25 33 -32 0 -40 -12 -70 -112 -20 -66 -33 -92 -57 -112 -17 -14 -36 -26
-43 -26 -8 0 -25 -9 -40 -21 -35 -28 -36 -94 -1 -173 27 -61 31 -105 14 -139
-7 -11 -50 -68 -97 -125 -113 -140 -164 -245 -170 -351 -2 -43 1 -102 7 -131
10 -49 9 -57 -11 -99 -17 -34 -32 -49 -55 -56 -68 -22 -123 -108 -123 -192 0
-55 -14 -85 -73 -163 -142 -184 -296 -300 -353 -262 -24 16 -54 93 -73 193
-13 67 -33 133 -57 183 l-37 78 22 72 c49 154 52 171 47 224 -3 34 -21 89 -52
154 -36 76 -49 118 -53 168 -7 69 -11 79 -66 140 -18 19 -44 56 -59 82 -48 85
-68 86 -269 17 -172 -59 -196 -60 -284 -7 -120 72 -225 194 -260 306 -16 51
-16 54 6 123 19 59 21 81 15 132 -11 86 -8 102 32 184 28 58 51 87 120 150 46
43 94 94 106 113 39 64 87 117 116 129 24 10 36 10 67 -3 54 -23 84 -20 166
15 94 41 189 50 243 24 41 -20 73 -49 155 -145 54 -61 113 -99 157 -100 12 0
46 11 76 24 l55 24 96 -39 c182 -73 277 -41 277 94 0 61 -28 85 -114 98 -37 5
-78 17 -93 26 -17 11 -48 17 -92 18 -36 1 -74 5 -84 10 -9 4 -43 50 -74 101
-70 119 -99 144 -162 144 -51 0 -71 -12 -71 -45 0 -25 24 -49 103 -100 61 -41
67 -57 30 -83 -22 -14 -23 -13 -23 20 0 44 -22 64 -128 117 -46 23 -102 55
-124 72 -33 23 -51 29 -95 29 -50 0 -57 -3 -105 -47 -28 -27 -70 -74 -94 -105
-65 -84 -130 -97 -240 -49 -78 35 -94 138 -38 240 43 79 112 110 247 111 80 0
92 5 175 79 71 62 73 70 36 163 -18 47 -18 48 2 75 14 18 50 40 106 63 47 19
102 50 122 68 42 36 44 37 71 19 11 -8 67 -33 125 -56 58 -24 139 -62 180 -86
78 -45 170 -80 191 -73 14 5 -178 151 -281 215 -36 22 -125 71 -199 108 -74
38 -128 71 -120 73 55 18 64 24 49 32 -67 36 -349 121 -475 143 -30 6 -31 5
-27 -30z"/>
<path d="M398 2555 c2 -95 -1 -155 -7 -155 -5 0 -19 16 -31 35 -12 19 -24 35
-26 35 -7 0 7 -138 26 -265 49 -314 163 -605 340 -872 78 -120 108 -155 97
-117 -30 98 -10 98 60 1 105 -143 257 -291 419 -407 l49 -35 -68 79 c-102 116
-214 272 -253 351 -20 42 -46 122 -63 200 -38 168 -40 174 -109 258 -150 184
-206 296 -227 453 -8 60 -15 150 -15 199 0 86 -2 93 -41 165 -33 61 -118 188
-148 222 -3 4 -5 -62 -3 -147z"/>
</g>
</svg>
