<?xml version="1.0" encoding="UTF-8" standalone="no"?><!DOCTYPE svg PUBLIC "-//W3C//DTD SVG 1.1//EN" "http://www.w3.org/Graphics/SVG/1.1/DTD/svg11.dtd"><svg width="100%" height="100%" viewBox="0 0 800 800" version="1.1" xmlns="http://www.w3.org/2000/svg" xmlns:xlink="http://www.w3.org/1999/xlink" xml:space="preserve" xmlns:serif="http://www.serif.com/" style="fill-rule:evenodd;clip-rule:evenodd;stroke-linejoin:round;stroke-miterlimit:1.41421;"><g transform="matrix(0.772105,-0.754715,0.754715,0.772105,-141.598,376.291)"><g transform="matrix(-0.441065,-0.897475,0.897475,-0.441065,79.8751,820.114)"><text x="295.315px" y="385.184px" style="font-family:'Raleway-Bold', 'Raleway', sans-serif;font-weight:700;font-size:53.719px;fill:#ffc600;">K</text></g><g transform="matrix(0.148888,-0.988854,0.988854,0.148888,-119.26,581.981)"><text x="278.453px" y="360.271px" style="font-family:'Raleway-Bold', 'Raleway', sans-serif;font-weight:700;font-size:53.719px;fill:#ffc600;">a</text></g><g transform="matrix(0.720649,-0.6933,0.6933,0.720649,-153.063,288.786)"><text x="281.827px" y="334.331px" style="font-family:'Raleway-Bold', 'Raleway', sans-serif;font-weight:700;font-size:53.719px;fill:#ffc600;">f</text></g><g transform="matrix(0.895635,-0.44479,0.44479,0.895635,-112.572,164.491)"><text x="294.233px" y="322.129px" style="font-family:'Raleway-Bold', 'Raleway', sans-serif;font-weight:700;font-size:53.719px;fill:#ffc600;">f</text></g><g transform="matrix(0.999476,-0.0323603,0.0323603,0.999476,-9.92865,10.18)"><text x="309.537px" y="311.826px" style="font-family:'Raleway-Bold', 'Raleway', sans-serif;font-weight:700;font-size:53.719px;fill:#ffc600;">e</text></g><g transform="matrix(0.845182,0.534478,-0.534478,0.845182,219.316,-134.205)"><text x="341.316px" y="311.471px" style="font-family:'Raleway-Bold', 'Raleway', sans-serif;font-weight:700;font-size:53.719px;fill:#ffc600;">e</text></g><g transform="matrix(0.552144,0.833749,-0.833749,0.552144,438.627,-159.304)"><text x="367.598px" y="328.632px" style="font-family:'Raleway-Bold', 'Raleway', sans-serif;font-weight:700;font-size:53.719px;fill:#ffc600;">-</text></g><g transform="matrix(0.0318935,0.999491,-0.999491,0.0318935,729.882,-38.0685)"><text x="384.592px" y="357.737px" style="font-family:'Raleway-Bold', 'Raleway', sans-serif;font-weight:700;font-size:53.719px;fill:#ffc600;">u</text></g><g transform="matrix(-0.381187,0.924498,-0.924498,-0.381187,893.815,182.559)"><text x="385.809px" y="390.417px" style="font-family:'Raleway-Bold', 'Raleway', sans-serif;font-weight:700;font-size:53.719px;fill:#ffc600;">n</text></g><g transform="matrix(-0.722385,0.691491,-0.691491,-0.722385,934.293,464.748)"><text x="373.855px" y="419.921px" style="font-family:'Raleway-Bold', 'Raleway', sans-serif;font-weight:700;font-size:53.719px;fill:#ffc600;">d</text></g><g transform="matrix(-0.964146,0.265373,-0.265373,-0.964146,787.112,790.797)"><text x="340.134px" y="448.571px" style="font-family:'Raleway-Bold', 'Raleway', sans-serif;font-weight:700;font-size:53.719px;fill:#ffc600;">T</text></g><g transform="matrix(-0.99989,-0.0148291,0.0148291,-0.99989,623.087,917.513)"><text x="314.945px" y="456.447px" style="font-family:'Raleway-Bold', 'Raleway', sans-serif;font-weight:700;font-size:53.719px;fill:#ffc600;">e</text></g><g transform="matrix(-0.939302,-0.34309,0.34309,-0.939302,393.391,981.939)"><text x="283.555px" y="456.171px" style="font-family:'Raleway-Bold', 'Raleway', sans-serif;font-weight:700;font-size:53.719px;fill:#ffc600;">e</text></g><g transform="matrix(-0.797238,-0.603665,0.603665,-0.797238,188.251,953.558)"><text x="254.269px" y="445.164px" style="font-family:'Raleway-Bold', 'Raleway', sans-serif;font-weight:700;font-size:53.719px;fill:#ffc600;">s</text></g><g transform="matrix(-0.598535,-0.801097,0.801097,-0.598535,28.6879,874.149)"><text x="233.382px" y="429.886px" style="font-family:'Raleway-Bold', 'Raleway', sans-serif;font-weight:700;font-size:53.719px;fill:#ffc600;">o</text></g><g transform="matrix(-0.404442,-0.914564,0.914564,-0.404442,-67.9478,764.433)"><text x="214.923px" y="404.34px" style="font-family:'Raleway-Bold', 'Raleway', sans-serif;font-weight:700;font-size:53.719px;fill:#ffc600;">r</text></g><g transform="matrix(-0.280645,-0.959812,0.959812,-0.280645,-105.944,693.208)"><text x="206.799px" y="386.305px" style="font-family:'Raleway-Bold', 'Raleway', sans-serif;font-weight:700;font-size:53.719px;fill:#ffc600;">t</text></g><g transform="matrix(-0.0523068,-0.998631,0.998631,-0.0523068,-157.02,587.556)"><text x="200.283px" y="368.284px" style="font-family:'Raleway-Bold', 'Raleway', sans-serif;font-weight:700;font-size:53.719px;fill:#ffc600;">e</text></g><g transform="matrix(0.262017,-0.965063,0.965063,0.262017,-178.737,440.312)"><text x="198.531px" y="337.024px" style="font-family:'Raleway-Bold', 'Raleway', sans-serif;font-weight:700;font-size:53.719px;fill:#ffc600;">n</text></g><g transform="matrix(0.443468,-0.89629,0.89629,0.443468,-159.582,356.918)"><text x="207.616px" y="306.962px" style="font-family:'Raleway-Bold', 'Raleway', sans-serif;font-weight:700;font-size:53.719px;fill:#ffc600;">,</text></g><g transform="matrix(0.692344,-0.721567,0.721567,0.692344,-139.123,245.029)"><text x="217.781px" y="285.662px" style="font-family:'Raleway-Bold', 'Raleway', sans-serif;font-weight:700;font-size:53.719px;fill:#ffc600;">K</text></g><g transform="matrix(0.838369,-0.545103,0.545103,0.838369,-102.842,173.978)"><text x="241.952px" y="260.407px" style="font-family:'Raleway-Bold', 'Raleway', sans-serif;font-weight:700;font-size:53.719px;fill:#ffc600;">a</text></g><g transform="matrix(0.943954,-0.330076,0.330076,0.943954,-65.5394,101.768)"><text x="266.907px" y="243.878px" style="font-family:'Raleway-Bold', 'Raleway', sans-serif;font-weight:700;font-size:53.719px;fill:#ffc600;">k</text></g><g transform="matrix(0.991982,-0.126379,0.126379,0.991982,-27.2297,39.0066)"><text x="293.795px" y="234.1px" style="font-family:'Raleway-Bold', 'Raleway', sans-serif;font-weight:700;font-size:53.719px;fill:#ffc600;">a</text></g><g transform="matrix(0.993995,0.109422,-0.109422,0.993995,27.1274,-34.021)"><text x="323.545px" y="230.159px" style="font-family:'Raleway-Bold', 'Raleway', sans-serif;font-weight:700;font-size:53.719px;fill:#ffc600;">o</text></g><g transform="matrix(0.965252,0.261322,-0.261322,0.965252,73.554,-84.5477)"><text x="354.694px" y="234.304px" style="font-family:'Raleway-Bold', 'Raleway', sans-serif;font-weight:700;font-size:53.719px;fill:#ffc600;">,</text></g><g transform="matrix(0.887656,0.460507,-0.460507,0.887656,153.151,-146.642)"><text x="377.123px" y="240.568px" style="font-family:'Raleway-Bold', 'Raleway', sans-serif;font-weight:700;font-size:53.719px;fill:#ffc600;">S</text></g><g transform="matrix(0.755276,0.655407,-0.655407,0.755276,266.574,-203.373)"><text x="405.619px" y="255.276px" style="font-family:'Raleway-Bold', 'Raleway', sans-serif;font-weight:700;font-size:53.719px;fill:#ffc600;">c</text></g><g transform="matrix(0.588242,0.808685,-0.808685,0.588242,398.086,-233.102)"><text x="427.947px" y="274.365px" style="font-family:'Raleway-Bold', 'Raleway', sans-serif;font-weight:700;font-size:53.719px;fill:#ffc600;">h</text></g><g transform="matrix(0.402653,0.915353,-0.915353,0.402653,541.138,-229.65)"><text x="446.523px" y="299.785px" style="font-family:'Raleway-Bold', 'Raleway', sans-serif;font-weight:700;font-size:53.719px;fill:#ffc600;">o</text></g><g transform="matrix(0.21037,0.977622,-0.977622,0.21037,684.022,-189.54)"><text x="459.343px" y="328.665px" style="font-family:'Raleway-Bold', 'Raleway', sans-serif;font-weight:700;font-size:53.719px;fill:#ffc600;">k</text></g><g transform="matrix(0.047491,0.998872,-0.998872,0.047491,798.598,-126.399)"><text x="465.575px" y="355.535px" style="font-family:'Raleway-Bold', 'Raleway', sans-serif;font-weight:700;font-size:53.719px;fill:#ffc600;">o</text></g><g transform="matrix(-0.106711,0.99429,-0.99429,-0.106711,901.218,-35.7939)"><text x="466.688px" y="386.939px" style="font-family:'Raleway-Bold', 'Raleway', sans-serif;font-weight:700;font-size:53.719px;fill:#ffc600;">l</text></g><g transform="matrix(-0.235896,0.971778,-0.971778,-0.235896,967.067,45.6574)"><text x="465.584px" y="403.029px" style="font-family:'Raleway-Bold', 'Raleway', sans-serif;font-weight:700;font-size:53.719px;fill:#ffc600;">a</text></g><g transform="matrix(-0.428117,0.903723,-0.903723,-0.428117,1045.73,202.443)"><text x="458.811px" y="432.094px" style="font-family:'Raleway-Bold', 'Raleway', sans-serif;font-weight:700;font-size:53.719px;fill:#ffc600;">d</text></g><g transform="matrix(-0.616519,0.78734,-0.78734,-0.616519,1082.49,397.817)"><text x="444.366px" y="462.528px" style="font-family:'Raleway-Bold', 'Raleway', sans-serif;font-weight:700;font-size:53.719px;fill:#ffc600;">e</text></g><g transform="matrix(-0.722818,0.691039,-0.691039,-0.722818,1067.97,544.889)"><text x="424.705px" y="486.631px" style="font-family:'Raleway-Bold', 'Raleway', sans-serif;font-weight:700;font-size:53.719px;fill:#ffc600;">,</text></g><g transform="matrix(-0.866985,0.498335,-0.498335,-0.866985,1012.29,735.876)"><text x="407.933px" y="503.038px" style="font-family:'Raleway-Bold', 'Raleway', sans-serif;font-weight:700;font-size:53.719px;fill:#ffc600;">H</text></g><g transform="matrix(-0.948565,0.316581,-0.316581,-0.948565,894.624,898.626)"><text x="374.313px" y="521.987px" style="font-family:'Raleway-Bold', 'Raleway', sans-serif;font-weight:700;font-size:53.719px;fill:#ffc600;">o</text></g><g transform="matrix(-0.985768,0.168114,-0.168114,-0.985768,773.161,998.549)"><text x="344.312px" y="532.002px" style="font-family:'Raleway-Bold', 'Raleway', sans-serif;font-weight:700;font-size:53.719px;fill:#ffc600;">n</text></g><g transform="matrix(-0.997217,0.0745497,-0.0745497,-0.997217,665.872,1048.97)"><text x="313.359px" y="536.91px" style="font-family:'Raleway-Bold', 'Raleway', sans-serif;font-weight:700;font-size:53.719px;fill:#ffc600;">i</text></g><g transform="matrix(-0.998948,-0.0458475,0.0458475,-0.998948,576.536,1090.23)"><text x="300.771px" y="538.501px" style="font-family:'Raleway-Bold', 'Raleway', sans-serif;font-weight:700;font-size:53.719px;fill:#ffc600;">g</text></g><g transform="matrix(-0.98345,-0.181182,0.181182,-0.98345,434.093,1112.23)"><text x="267.845px" y="536.287px" style="font-family:'Raleway-Bold', 'Raleway', sans-serif;font-weight:700;font-size:53.719px;fill:#ffc600;">,</text></g><g transform="matrix(-0.918122,-0.396297,0.396297,-0.918122,258.66,1118.04)"><text x="244.827px" y="532.301px" style="font-family:'Raleway-Bold', 'Raleway', sans-serif;font-weight:700;font-size:53.719px;fill:#ffc600;">G</text></g><g transform="matrix(-0.811011,-0.58503,0.58503,-0.811011,77.9391,1059.06)"><text x="210.03px" y="516.943px" style="font-family:'Raleway-Bold', 'Raleway', sans-serif;font-weight:700;font-size:53.719px;fill:#ffc600;">e</text></g><g transform="matrix(-0.669134,-0.743142,0.743142,-0.669134,-62.979,971.446)"><text x="184.767px" y="499.743px" style="font-family:'Raleway-Bold', 'Raleway', sans-serif;font-weight:700;font-size:53.719px;fill:#ffc600;">w</text></g><g transform="matrix(-0.504341,-0.863504,0.863504,-0.504341,-168.779,836.424)"><text x="155.668px" y="466.652px" style="font-family:'Raleway-Bold', 'Raleway', sans-serif;font-weight:700;font-size:53.719px;fill:#ffc600;">ü</text></g><g transform="matrix(-0.385367,-0.922763,0.922763,-0.385367,-211.396,736.756)"><text x="139.67px" y="438.781px" style="font-family:'Raleway-Bold', 'Raleway', sans-serif;font-weight:700;font-size:53.719px;fill:#ffc600;">r</text></g><g transform="matrix(-0.288959,-0.957342,0.957342,-0.288959,-232.783,668.363)"><text x="131.813px" y="420.629px" style="font-family:'Raleway-Bold', 'Raleway', sans-serif;font-weight:700;font-size:53.719px;fill:#ffc600;">z</text></g><g transform="matrix(-0.160013,-0.987115,0.987115,-0.160013,-247.652,583.332)"><text x="124.367px" y="397.036px" style="font-family:'Raleway-Bold', 'Raleway', sans-serif;font-weight:700;font-size:53.719px;fill:#ffc600;">e</text></g><g transform="matrix(-0.0597101,-0.998216,0.998216,-0.0597101,-238.66,507.763)"><text x="119.819px" y="366.286px" style="font-family:'Raleway-Bold', 'Raleway', sans-serif;font-weight:700;font-size:53.719px;fill:#ffc600;">,</text></g><g transform="matrix(0.104196,-0.994557,0.994557,0.104196,-235.047,425.129)"><text x="118.474px" y="343.044px" style="font-family:'Raleway-Bold', 'Raleway', sans-serif;font-weight:700;font-size:53.719px;fill:#ffc600;">S</text></g><g transform="matrix(0.261501,-0.965203,0.965203,0.261501,-210.522,347.475)"><text x="121.811px" y="311.312px" style="font-family:'Raleway-Bold', 'Raleway', sans-serif;font-weight:700;font-size:53.719px;fill:#ffc600;">ä</text></g><g transform="matrix(0.39348,-0.919333,0.919333,0.39348,-181.301,290.804)"><text x="129.743px" y="282.806px" style="font-family:'Raleway-Bold', 'Raleway', sans-serif;font-weight:700;font-size:53.719px;fill:#ffc600;">f</text></g><g transform="matrix(0.485121,-0.874447,0.874447,0.485121,-161.562,256.465)"><text x="137.003px" y="265.427px" style="font-family:'Raleway-Bold', 'Raleway', sans-serif;font-weight:700;font-size:53.719px;fill:#ffc600;">t</text></g><g transform="matrix(0.601935,-0.798545,0.798545,0.601935,-140.539,215.302)"><text x="145.686px" y="248.616px" style="font-family:'Raleway-Bold', 'Raleway', sans-serif;font-weight:700;font-size:53.719px;fill:#ffc600;">e</text></g><g transform="matrix(0.777267,-0.62917,0.62917,0.777267,-96.8377,156.471)"><text x="172.58px" y="215.008px" style="font-family:'Raleway-Bold', 'Raleway', sans-serif;font-weight:700;font-size:53.719px;fill:#ffc600;">u</text></g><g transform="matrix(0.856491,-0.516162,0.516162,0.856491,-72.2352,129.983)"><text x="197.638px" y="194.896px" style="font-family:'Raleway-Bold', 'Raleway', sans-serif;font-weight:700;font-size:53.719px;fill:#ffc600;">n</text></g><g transform="matrix(0.91269,-0.408652,0.408652,0.91269,-53.365,107.32)"><text x="224.471px" y="178.547px" style="font-family:'Raleway-Bold', 'Raleway', sans-serif;font-weight:700;font-size:53.719px;fill:#ffc600;">d</text></g><g transform="matrix(0.982736,-0.185012,0.185012,0.982736,-25.099,51.6802)"><text x="264.373px" y="160.33px" style="font-family:'Raleway-Bold', 'Raleway', sans-serif;font-weight:700;font-size:53.719px;fill:#ffc600;">W</text></g><g transform="matrix(0.999998,0.0021218,-0.0021218,0.999998,0.321851,-0.669496)"><text x="315.693px" y="151.353px" style="font-family:'Raleway-Bold', 'Raleway', sans-serif;font-weight:700;font-size:53.719px;fill:#ffc600;">e</text></g><g transform="matrix(0.994217,0.10739,-0.10739,0.994217,18.3108,-36.3603)"><text x="346.757px" y="151.833px" style="font-family:'Raleway-Bold', 'Raleway', sans-serif;font-weight:700;font-size:53.719px;fill:#ffc600;">i</text></g><g transform="matrix(0.976665,0.214768,-0.214768,0.976665,41.1666,-73.6357)"><text x="359.445px" y="152.626px" style="font-family:'Raleway-Bold', 'Raleway', sans-serif;font-weight:700;font-size:53.719px;fill:#ffc600;">n</text></g><g transform="matrix(0.932183,0.361988,-0.361988,0.932183,84.1254,-130.442)"><text x="390.192px" y="159.298px" style="font-family:'Raleway-Bold', 'Raleway', sans-serif;font-weight:700;font-size:53.719px;fill:#ffc600;">e</text></g><g transform="matrix(0.890368,0.455242,-0.455242,0.890368,123.764,-172.005)"><text x="419.003px" y="170.959px" style="font-family:'Raleway-Bold', 'Raleway', sans-serif;font-weight:700;font-size:53.719px;fill:#ffc600;">,</text></g><g transform="matrix(0.799493,0.600675,-0.600675,0.799493,197.182,-227.83)"><text x="439.855px" y="181.442px" style="font-family:'Raleway-Bold', 'Raleway', sans-serif;font-weight:700;font-size:53.719px;fill:#ffc600;">G</text></g><g transform="matrix(0.713018,0.701146,-0.701146,0.713018,278.305,-270.655)"><text x="469.78px" y="204.646px" style="font-family:'Raleway-Bold', 'Raleway', sans-serif;font-weight:700;font-size:53.719px;fill:#ffc600;">l</text></g><g transform="matrix(0.644598,0.764521,-0.764521,0.644598,335.91,-291.502)"><text x="481.486px" y="215.545px" style="font-family:'Raleway-Bold', 'Raleway', sans-serif;font-weight:700;font-size:53.719px;fill:#ffc600;">ä</text></g><g transform="matrix(0.548868,0.835909,-0.835909,0.548868,425.109,-310.933)"><text x="500.621px" y="238.379px" style="font-family:'Raleway-Bold', 'Raleway', sans-serif;font-weight:700;font-size:53.719px;fill:#ffc600;">s</text></g><g transform="matrix(0.446318,0.894874,-0.894874,0.446318,517.542,-316.96)"><text x="514.91px" y="259.752px" style="font-family:'Raleway-Bold', 'Raleway', sans-serif;font-weight:700;font-size:53.719px;fill:#ffc600;">e</text></g><g transform="matrix(0.350648,0.936507,-0.936507,0.350648,612.673,-308.274)"><text x="528.636px" y="287.667px" style="font-family:'Raleway-Bold', 'Raleway', sans-serif;font-weight:700;font-size:53.719px;fill:#ffc600;">r</text></g><g transform="matrix(0.308204,0.95132,-0.95132,0.308204,658.893,-298.499)"><text x="534.687px" y="303.787px" style="font-family:'Raleway-Bold', 'Raleway', sans-serif;font-weight:700;font-size:53.719px;fill:#ffc600;">,</text></g><g transform="matrix(0.194648,0.980873,-0.980873,0.194648,754.279,-269.78)"><text x="541.428px" y="324.445px" style="font-family:'Raleway-Bold', 'Raleway', sans-serif;font-weight:700;font-size:53.719px;fill:#ffc600;">T</text></g><g transform="matrix(0.0755397,0.997143,-0.997143,0.0755397,854.668,-222.034)"><text x="547.079px" y="349.914px" style="font-family:'Raleway-Bold', 'Raleway', sans-serif;font-weight:700;font-size:53.719px;fill:#ffc600;">e</text></g><g transform="matrix(-0.0751799,0.99717,-0.99717,-0.0751799,969.593,-139.224)"><text x="549.358px" y="380.01px" style="font-family:'Raleway-Bold', 'Raleway', sans-serif;font-weight:700;font-size:53.719px;fill:#ffc600;">x</text></g><g transform="matrix(-0.191639,0.981465,-0.981465,-0.191639,1051.81,-51.5431)"><text x="547.129px" y="407.376px" style="font-family:'Raleway-Bold', 'Raleway', sans-serif;font-weight:700;font-size:53.719px;fill:#ffc600;">t</text></g><g transform="matrix(-0.263024,0.964789,-0.964789,-0.263024,1097.78,14.6642)"><text x="543.29px" y="426.614px" style="font-family:'Raleway-Bold', 'Raleway', sans-serif;font-weight:700;font-size:53.719px;fill:#ffc600;">i</text></g><g transform="matrix(-0.330085,0.943951,-0.943951,-0.330085,1132.62,73.7841)"><text x="540.128px" y="438.798px" style="font-family:'Raleway-Bold', 'Raleway', sans-serif;font-weight:700;font-size:53.719px;fill:#ffc600;">l</text></g><g transform="matrix(-0.380094,0.924948,-0.924948,-0.380094,1157.99,131.61)"><text x="534.894px" y="453.852px" style="font-family:'Raleway-Bold', 'Raleway', sans-serif;font-weight:700;font-size:53.719px;fill:#ffc600;">i</text></g><g transform="matrix(-0.461515,0.887132,-0.887132,-0.461515,1188.53,210.093)"><text x="530.5px" y="465.761px" style="font-family:'Raleway-Bold', 'Raleway', sans-serif;font-weight:700;font-size:53.719px;fill:#ffc600;">e</text></g><g transform="matrix(-0.565175,0.824971,-0.824971,-0.565175,1214.99,346.456)"><text x="516.192px" y="493.427px" style="font-family:'Raleway-Bold', 'Raleway', sans-serif;font-weight:700;font-size:53.719px;fill:#ffc600;">n</text></g><g transform="matrix(-0.629163,0.777273,-0.777273,-0.629163,1215.1,458.451)"><text x="498.186px" y="519.087px" style="font-family:'Raleway-Bold', 'Raleway', sans-serif;font-weight:700;font-size:53.719px;fill:#ffc600;">,</text></g><g transform="matrix(-0.723315,0.690518,-0.690518,-0.723315,1204.25,591.889)"><text x="483.542px" y="537.211px" style="font-family:'Raleway-Bold', 'Raleway', sans-serif;font-weight:700;font-size:53.719px;fill:#ffc600;">L</text></g><g transform="matrix(-0.791855,0.610709,-0.610709,-0.791855,1169.39,716.531)"><text x="462.592px" y="557.545px" style="font-family:'Raleway-Bold', 'Raleway', sans-serif;font-weight:700;font-size:53.719px;fill:#ffc600;">e</text></g><g transform="matrix(-0.860653,0.509192,-0.509192,-0.860653,1108.68,849.918)"><text x="438.044px" y="576.662px" style="font-family:'Raleway-Bold', 'Raleway', sans-serif;font-weight:700;font-size:53.719px;fill:#ffc600;">d</text></g><g transform="matrix(-0.920173,0.391513,-0.391513,-0.920173,1017.97,980.03)"><text x="409.072px" y="593.794px" style="font-family:'Raleway-Bold', 'Raleway', sans-serif;font-weight:700;font-size:53.719px;fill:#ffc600;">e</text></g><g transform="matrix(-0.957761,0.287566,-0.287566,-0.957761,918.92,1076.66)"><text x="380.387px" y="605.817px" style="font-family:'Raleway-Bold', 'Raleway', sans-serif;font-weight:700;font-size:53.719px;fill:#ffc600;">r</text></g><g transform="matrix(-0.987306,0.158827,-0.158827,-0.987306,815.992,1159.67)"><text x="361.655px" y="612.444px" style="font-family:'Raleway-Bold', 'Raleway', sans-serif;font-weight:700;font-size:53.719px;fill:#ffc600;">w</text></g><g transform="matrix(-0.999999,0.00137435,-0.00137435,-0.999999,638.395,1237.36)"><text x="318.773px" y="618.899px" style="font-family:'Raleway-Bold', 'Raleway', sans-serif;font-weight:700;font-size:53.719px;fill:#ffc600;">a</text></g><g transform="matrix(-0.993673,-0.112308,0.112308,-0.993673,506.776,1266.09)"><text x="289.049px" y="618.773px" style="font-family:'Raleway-Bold', 'Raleway', sans-serif;font-weight:700;font-size:53.719px;fill:#ffc600;">r</text></g><g transform="matrix(-0.978034,-0.208444,0.208444,-0.978034,406.854,1277.2)"><text x="270.722px" y="617.163px" style="font-family:'Raleway-Bold', 'Raleway', sans-serif;font-weight:700;font-size:53.719px;fill:#ffc600;">e</text></g><g transform="matrix(-0.94424,-0.329259,0.329259,-0.94424,266.01,1266.53)"><text x="240.249px" y="610.741px" style="font-family:'Raleway-Bold', 'Raleway', sans-serif;font-weight:700;font-size:53.719px;fill:#ffc600;">n</text></g><g transform="matrix(-0.915045,-0.403352,0.403352,-0.915045,161.646,1234.24)"><text x="210.802px" y="600.095px" style="font-family:'Raleway-Bold', 'Raleway', sans-serif;font-weight:700;font-size:53.719px;fill:#ffc600;">,</text></g><g transform="matrix(-0.862904,-0.505368,0.505368,-0.862904,54.5645,1196.04)"><text x="189.513px" y="590.619px" style="font-family:'Raleway-Bold', 'Raleway', sans-serif;font-weight:700;font-size:53.719px;fill:#ffc600;">S</text></g><g transform="matrix(-0.811311,-0.584615,0.584615,-0.811311,-42.325,1135.32)"><text x="162.054px" y="574.489px" style="font-family:'Raleway-Bold', 'Raleway', sans-serif;font-weight:700;font-size:53.719px;fill:#ffc600;">c</text></g><g transform="matrix(-0.758807,-0.651315,0.651315,-0.758807,-119.929,1070.57)"><text x="138.26px" y="557.49px" style="font-family:'Raleway-Bold', 'Raleway', sans-serif;font-weight:700;font-size:53.719px;fill:#ffc600;">h</text></g><g transform="matrix(-0.678452,-0.734645,0.734645,-0.678452,-202.645,985.481)"><text x="114.346px" y="537.089px" style="font-family:'Raleway-Bold', 'Raleway', sans-serif;font-weight:700;font-size:53.719px;fill:#ffc600;">n</text></g><g transform="matrix(-0.613734,-0.789513,0.789513,-0.613734,-255.084,902.808)"><text x="93.306px" y="513.803px" style="font-family:'Raleway-Bold', 'Raleway', sans-serif;font-weight:700;font-size:53.719px;fill:#ffc600;">i</text></g><g transform="matrix(-0.560974,-0.827833,0.827833,-0.560974,-283.824,857.332)"><text x="85.423px" y="503.927px" style="font-family:'Raleway-Bold', 'Raleway', sans-serif;font-weight:700;font-size:53.719px;fill:#ffc600;">t</text></g><g transform="matrix(-0.485038,-0.874493,0.874493,-0.485038,-316.291,789.358)"><text x="74.269px" y="487.806px" style="font-family:'Raleway-Bold', 'Raleway', sans-serif;font-weight:700;font-size:53.719px;fill:#ffc600;">z</text></g><g transform="matrix(-0.383562,-0.923515,0.923515,-0.383562,-344.829,702.631)"><text x="62.086px" y="466.401px" style="font-family:'Raleway-Bold', 'Raleway', sans-serif;font-weight:700;font-size:53.719px;fill:#ffc600;">e</text></g><g transform="matrix(-0.282563,-0.959249,0.959249,-0.282563,-355.238,609.507)"><text x="50.311px" y="437.597px" style="font-family:'Raleway-Bold', 'Raleway', sans-serif;font-weight:700;font-size:53.719px;fill:#ffc600;">r</text></g><g transform="matrix(-0.193831,-0.981035,0.981035,-0.193831,-358.768,545.394)"><text x="44.706px" y="420.106px" style="font-family:'Raleway-Bold', 'Raleway', sans-serif;font-weight:700;font-size:53.719px;fill:#ffc600;">e</text></g><g transform="matrix(-0.110251,-0.993904,0.993904,-0.110251,-343.856,471.269)"><text x="39.013px" y="389.545px" style="font-family:'Raleway-Bold', 'Raleway', sans-serif;font-weight:700;font-size:53.719px;fill:#ffc600;">i</text></g><g transform="matrix(-0.0263683,-0.999652,0.999652,-0.0263683,-338.666,424.062)"><text x="37.179px" y="376.957px" style="font-family:'Raleway-Bold', 'Raleway', sans-serif;font-weight:700;font-size:53.719px;fill:#ffc600;">e</text></g><g transform="matrix(0.0885028,-0.996076,0.996076,0.0885028,-311.455,351.409)"><text x="36.281px" y="345.882px" style="font-family:'Raleway-Bold', 'Raleway', sans-serif;font-weight:700;font-size:53.719px;fill:#ffc600;">n</text></g><g transform="matrix(0.164401,-0.986394,0.986394,0.164401,-277.386,301.741)"><text x="39.404px" y="314.593px" style="font-family:'Raleway-Bold', 'Raleway', sans-serif;font-weight:700;font-size:53.719px;fill:#ffc600;">,</text></g><g transform="matrix(0.290808,-0.956781,0.956781,0.290808,-248.527,248.002)"><text x="43.028px" y="291.646px" style="font-family:'Raleway-Bold', 'Raleway', sans-serif;font-weight:700;font-size:53.719px;fill:#ffc600;">K</text></g><g transform="matrix(0.385878,-0.92255,0.92255,0.385878,-207.115,207.944)"><text x="52.632px" y="259.539px" style="font-family:'Raleway-Bold', 'Raleway', sans-serif;font-weight:700;font-size:53.719px;fill:#ffc600;">e</text></g><g transform="matrix(0.467173,-0.884166,0.884166,0.467173,-169.614,180.291)"><text x="64.779px" y="230.873px" style="font-family:'Raleway-Bold', 'Raleway', sans-serif;font-weight:700;font-size:53.719px;fill:#ffc600;">r</text></g><g transform="matrix(0.529411,-0.848365,0.848365,0.529411,-146.281,163.035)"><text x="73.817px" y="213.373px" style="font-family:'Raleway-Bold', 'Raleway', sans-serif;font-weight:700;font-size:53.719px;fill:#ffc600;">z</text></g><g transform="matrix(0.607203,-0.794546,0.794546,0.607203,-118.739,144.422)"><text x="86.699px" y="192.303px" style="font-family:'Raleway-Bold', 'Raleway', sans-serif;font-weight:700;font-size:53.719px;fill:#ffc600;">e</text></g><g transform="matrix(0.688964,-0.724796,0.724796,0.688964,-88.5729,128.6)"><text x="105.549px" y="167.499px" style="font-family:'Raleway-Bold', 'Raleway', sans-serif;font-weight:700;font-size:53.719px;fill:#ffc600;">n</text></g><g transform="matrix(0.740757,-0.671773,0.671773,0.740757,-64.3844,123.162)"><text x="127.382px" y="145px" style="font-family:'Raleway-Bold', 'Raleway', sans-serif;font-weight:700;font-size:53.719px;fill:#ffc600;">,</text></g><g transform="matrix(0.820984,-0.570951,0.570951,0.820984,-47.9359,105.64)"><text x="144.496px" y="129.263px" style="font-family:'Raleway-Bold', 'Raleway', sans-serif;font-weight:700;font-size:53.719px;fill:#ffc600;">R</text></g><g transform="matrix(0.877869,-0.4789,0.4789,0.877869,-31.4357,96.0696)"><text x="172.637px" y="109.668px" style="font-family:'Raleway-Bold', 'Raleway', sans-serif;font-weight:700;font-size:53.719px;fill:#ffc600;">ä</text></g><g transform="matrix(0.926654,-0.375915,0.375915,0.926654,-21.2399,81.6921)"><text x="198.726px" y="95.276px" style="font-family:'Raleway-Bold', 'Raleway', sans-serif;font-weight:700;font-size:53.719px;fill:#ffc600;">u</text></g><g transform="matrix(0.962159,-0.272488,0.272488,0.962159,-14.0099,65.4337)"><text x="228.585px" y="83.159px" style="font-family:'Raleway-Bold', 'Raleway', sans-serif;font-weight:700;font-size:53.719px;fill:#ffc600;">c</text></g><g transform="matrix(0.985609,-0.169043,0.169043,0.985609,-8.99611,44.4727)"><text x="256.694px" y="75.071px" style="font-family:'Raleway-Bold', 'Raleway', sans-serif;font-weight:700;font-size:53.719px;fill:#ffc600;">h</text></g><g transform="matrix(0.997935,-0.0642259,0.0642259,0.997935,-3.88391,18.6143)"><text x="287.585px" y="69.717px" style="font-family:'Raleway-Bold', 'Raleway', sans-serif;font-weight:700;font-size:53.719px;fill:#ffc600;">e</text></g><g transform="matrix(0.999781,0.020945,-0.020945,0.999781,1.49131,-6.65912)"><text x="318.644px" y="67.864px" style="font-family:'Raleway-Bold', 'Raleway', sans-serif;font-weight:700;font-size:53.719px;fill:#ffc600;">r</text></g><g transform="matrix(0.996298,0.0859674,-0.0859674,0.996298,7.10813,-28.8351)"><text x="338.353px" y="68.113px" style="font-family:'Raleway-Bold', 'Raleway', sans-serif;font-weight:700;font-size:53.719px;fill:#ffc600;">s</text></g><g transform="matrix(0.988301,0.152516,-0.152516,0.988301,14.9932,-54.6833)"><text x="363.941px" y="70.389px" style="font-family:'Raleway-Bold', 'Raleway', sans-serif;font-weight:700;font-size:53.719px;fill:#ffc600;">t</text></g><g transform="matrix(0.976149,0.217101,-0.217101,0.976149,25.0282,-81.4693)"><text x="383.3px" y="73.175px" style="font-family:'Raleway-Bold', 'Raleway', sans-serif;font-weight:700;font-size:53.719px;fill:#ffc600;">ä</text></g><g transform="matrix(0.9552,0.295961,-0.295961,0.9552,42.0192,-118.505)"><text x="412.448px" y="79.543px" style="font-family:'Raleway-Bold', 'Raleway', sans-serif;font-weight:700;font-size:53.719px;fill:#ffc600;">b</text></g><g transform="matrix(0.915423,0.402494,-0.402494,0.915423,73.4597,-171.169)"><text x="444.017px" y="89.208px" style="font-family:'Raleway-Bold', 'Raleway', sans-serif;font-weight:700;font-size:53.719px;fill:#ffc600;">c</text></g><g transform="matrix(0.860271,0.509836,-0.509836,0.860271,117.205,-225.963)"><text x="470.844px" y="100.844px" style="font-family:'Raleway-Bold', 'Raleway', sans-serif;font-weight:700;font-size:53.719px;fill:#ffc600;">h</text></g><g transform="matrix(0.791498,0.611171,-0.611171,0.791498,175.176,-279.931)"><text x="497.863px" y="116.778px" style="font-family:'Raleway-Bold', 'Raleway', sans-serif;font-weight:700;font-size:53.719px;fill:#ffc600;">e</text></g><g transform="matrix(0.714208,0.699933,-0.699933,0.714208,244.36,-326.959)"><text x="522.558px" y="135.753px" style="font-family:'Raleway-Bold', 'Raleway', sans-serif;font-weight:700;font-size:53.719px;fill:#ffc600;">n</text></g><g transform="matrix(0.658145,0.752891,-0.752891,0.658145,305.173,-356.13)"><text x="544.752px" y="157.987px" style="font-family:'Raleway-Bold', 'Raleway', sans-serif;font-weight:700;font-size:53.719px;fill:#ffc600;">,</text></g><g transform="matrix(0.567599,0.823305,-0.823305,0.567599,386.652,-385.153)"><text x="559.998px" y="175.522px" style="font-family:'Raleway-Bold', 'Raleway', sans-serif;font-weight:700;font-size:53.719px;fill:#ffc600;">S</text></g><g transform="matrix(0.474606,0.880198,-0.880198,0.474606,481.32,-402.935)"><text x="578.181px" y="201.712px" style="font-family:'Raleway-Bold', 'Raleway', sans-serif;font-weight:700;font-size:53.719px;fill:#ffc600;">p</text></g><g transform="matrix(0.412965,0.910747,-0.910747,0.412965,558.782,-405.061)"><text x="593.604px" y="230.927px" style="font-family:'Raleway-Bold', 'Raleway', sans-serif;font-weight:700;font-size:53.719px;fill:#ffc600;">i</text></g><g transform="matrix(0.351406,0.936223,-0.936223,0.351406,615.404,-403.786)"><text x="599.128px" y="242.265px" style="font-family:'Raleway-Bold', 'Raleway', sans-serif;font-weight:700;font-size:53.719px;fill:#ffc600;">e</text></g><g transform="matrix(0.281371,0.959599,-0.959599,0.281371,698.711,-390.204)"><text x="609.879px" y="271.399px" style="font-family:'Raleway-Bold', 'Raleway', sans-serif;font-weight:700;font-size:53.719px;fill:#ffc600;">l</text></g><g transform="matrix(0.22799,0.973663,-0.973663,0.22799,753.65,-377.037)"><text x="614.586px" y="286.735px" style="font-family:'Raleway-Bold', 'Raleway', sans-serif;font-weight:700;font-size:53.719px;fill:#ffc600;">z</text></g><g transform="matrix(0.149567,0.988752,-0.988752,0.149567,834.783,-349.198)"><text x="620.388px" y="310.679px" style="font-family:'Raleway-Bold', 'Raleway', sans-serif;font-weight:700;font-size:53.719px;fill:#ffc600;">e</text></g><g transform="matrix(0.0583265,0.998298,-0.998298,0.0583265,929.556,-302.543)"><text x="625.146px" y="341.454px" style="font-family:'Raleway-Bold', 'Raleway', sans-serif;font-weight:700;font-size:53.719px;fill:#ffc600;">u</text></g><g transform="matrix(-0.0331527,0.99945,-0.99945,-0.0331527,1021.23,-240.776)"><text x="627.076px" y="373.57px" style="font-family:'Raleway-Bold', 'Raleway', sans-serif;font-weight:700;font-size:53.719px;fill:#ffc600;">g</text></g><g transform="matrix(-0.101552,0.99483,-0.99483,-0.101552,1093.56,-174.616)"><text x="625.627px" y="406.496px" style="font-family:'Raleway-Bold', 'Raleway', sans-serif;font-weight:700;font-size:53.719px;fill:#ffc600;">,</text></g><g transform="matrix(-0.208592,0.978003,-0.978003,-0.208592,1173.55,-90.3722)"><text x="623.339px" y="429.637px" style="font-family:'Raleway-Bold', 'Raleway', sans-serif;font-weight:700;font-size:53.719px;fill:#ffc600;">P</text></g><g transform="matrix(-0.299754,0.954017,-0.954017,-0.299754,1241.44,10.95)"><text x="616.702px" y="461.082px" style="font-family:'Raleway-Bold', 'Raleway', sans-serif;font-weight:700;font-size:53.719px;fill:#ffc600;">a</text></g><g transform="matrix(-0.402242,0.915533,-0.915533,-0.402242,1300.72,129.902)"><text x="607.953px" y="489.575px" style="font-family:'Raleway-Bold', 'Raleway', sans-serif;font-weight:700;font-size:53.719px;fill:#ffc600;">p</text></g><g transform="matrix(-0.471641,0.881791,-0.881791,-0.471641,1332.95,240.499)"><text x="594.424px" y="519.594px" style="font-family:'Raleway-Bold', 'Raleway', sans-serif;font-weight:700;font-size:53.719px;fill:#ffc600;">i</text></g><g transform="matrix(-0.540549,0.841313,-0.841313,-0.540549,1353.81,322.676)"><text x="588.798px" y="531.005px" style="font-family:'Raleway-Bold', 'Raleway', sans-serif;font-weight:700;font-size:53.719px;fill:#ffc600;">e</text></g><g transform="matrix(-0.620515,0.784195,-0.784195,-0.620515,1363.56,454.401)"><text x="571.834px" y="557.125px" style="font-family:'Raleway-Bold', 'Raleway', sans-serif;font-weight:700;font-size:53.719px;fill:#ffc600;">r</text></g><g transform="matrix(-0.68171,0.731623,-0.731623,-0.68171,1361.22,551.249)"><text x="560.703px" y="571.723px" style="font-family:'Raleway-Bold', 'Raleway', sans-serif;font-weight:700;font-size:53.719px;fill:#ffc600;">e</text></g><g transform="matrix(-0.710174,0.704026,-0.704026,-0.710174,1341.15,636.705)"><text x="539.517px" y="594.407px" style="font-family:'Raleway-Bold', 'Raleway', sans-serif;font-weight:700;font-size:53.719px;fill:#ffc600;">r</text></g><g transform="matrix(-0.738392,0.674371,-0.674371,-0.738392,1323.94,703.199)"><text x="525.575px" y="608.396px" style="font-family:'Raleway-Bold', 'Raleway', sans-serif;font-weight:700;font-size:53.719px;fill:#ffc600;">z</text></g><g transform="matrix(-0.781571,0.623816,-0.623816,-0.781571,1294.18,797.113)"><text x="507.536px" y="625.135px" style="font-family:'Raleway-Bold', 'Raleway', sans-serif;font-weight:700;font-size:53.719px;fill:#ffc600;">e</text></g><g transform="matrix(-0.836838,0.547451,-0.547451,-0.836838,1240.56,919.709)"><text x="483.226px" y="644.723px" style="font-family:'Raleway-Bold', 'Raleway', sans-serif;font-weight:700;font-size:53.719px;fill:#ffc600;">u</text></g><g transform="matrix(-0.889887,0.456181,-0.456181,-0.889887,1164.69,1043.63)"><text x="456.389px" y="662.379px" style="font-family:'Raleway-Bold', 'Raleway', sans-serif;font-weight:700;font-size:53.719px;fill:#ffc600;">g</text></g><g transform="matrix(-0.936565,0.350494,-0.350494,-0.936565,1064.37,1162.17)"><text x="427.017px" y="677.403px" style="font-family:'Raleway-Bold', 'Raleway', sans-serif;font-weight:700;font-size:53.719px;fill:#ffc600;">n</text></g><g transform="matrix(-0.959646,0.281212,-0.281212,-0.959646,972.482,1236.68)"><text x="397.508px" y="688.118px" style="font-family:'Raleway-Bold', 'Raleway', sans-serif;font-weight:700;font-size:53.719px;fill:#ffc600;">i</text></g><g transform="matrix(-0.974493,0.224417,-0.224417,-0.974493,916.288,1279.62)"><text x="385.425px" y="691.88px" style="font-family:'Raleway-Bold', 'Raleway', sans-serif;font-weight:700;font-size:53.719px;fill:#ffc600;">s</text></g><g transform="matrix(-0.987896,0.155115,-0.155115,-0.987896,824.829,1330.9)"><text x="360.49px" y="697.632px" style="font-family:'Raleway-Bold', 'Raleway', sans-serif;font-weight:700;font-size:53.719px;fill:#ffc600;">s</text></g><g transform="matrix(-0.996089,0.0883556,-0.0883556,-0.996089,730.918,1371.08)"><text x="335.114px" y="701.716px" style="font-family:'Raleway-Bold', 'Raleway', sans-serif;font-weight:700;font-size:53.719px;fill:#ffc600;">e</text></g></g></svg>